<?xml version="1.0" standalone="no"?>
<!DOCTYPE svg PUBLIC "-//W3C//DTD SVG 20010904//EN"
 "http://www.w3.org/TR/2001/REC-SVG-20010904/DTD/svg10.dtd">
<svg version="1.0" xmlns="http://www.w3.org/2000/svg"
 width="418.000000pt" height="418.000000pt" viewBox="0 0 418.000000 418.000000"
 preserveAspectRatio="xMidYMid meet">
<metadata>
Created by potrace 1.14, written by Peter Selinger 2001-2017
</metadata>
<g transform="translate(0.000000,418.000000) scale(0.100000,-0.100000)"
fill="#000000" stroke="none">
<path d="M525 2582 c-2 -2 -25 -5 -52 -8 -183 -14 -264 -36 -304 -81 -28 -32
-30 -40 -28 -102 1 -38 -1 -73 -5 -80 -4 -6 -3 -11 1 -11 7 0 10 -54 4 -85 -3
-16 0 -384 4 -449 3 -46 9 -64 29 -85 15 -15 24 -29 22 -32 -5 -5 4 -6 58 -10
18 -1 23 -6 19 -18 -4 -13 -2 -13 7 2 14 22 31 22 24 0 -5 -16 -4 -16 5 -2 9
13 25 16 83 14 40 -1 83 2 96 6 14 5 22 5 22 -2 0 -5 8 -9 18 -7 10 2 16 -2
14 -10 -1 -8 2 -11 8 -7 6 3 8 10 5 15 -9 15 46 4 57 -11 8 -11 9 -11 5 3 -5
13 0 16 21 13 15 -1 26 -8 24 -15 -1 -6 2 -9 8 -5 6 3 7 11 4 17 -5 7 -1 9 9
5 9 -3 30 1 46 9 17 9 35 13 41 9 5 -3 10 -1 10 5 0 6 4 9 10 5 5 -3 7 -13 4
-23 -5 -14 -4 -14 4 -2 6 8 9 17 6 21 -6 10 26 20 39 12 7 -4 8 0 3 13 -3 11
4 6 18 -12 25 -30 85 -77 72 -55 -4 6 -3 11 3 11 5 0 12 -6 14 -12 4 -10 6
-10 6 0 1 6 6 12 12 12 6 0 8 -8 5 -17 -6 -17 -5 -17 8 0 10 14 15 15 19 5 4
-10 6 -10 6 0 1 6 6 12 12 12 5 0 8 -4 5 -8 -3 -5 1 -9 8 -9 8 0 12 6 9 13 -3
9 3 12 21 8 14 -2 26 0 26 6 0 5 3 9 8 9 4 -1 9 0 12 1 18 7 48 9 63 4 13 -4
16 -12 12 -27 -4 -13 -3 -17 2 -11 4 7 20 12 36 12 21 0 25 -3 17 -13 -8 -10
-8 -15 1 -21 8 -5 9 -3 4 6 -6 10 -4 12 8 7 10 -4 14 -2 11 6 -2 7 3 14 13 15
18 2 54 9 63 12 3 1 10 3 15 5 6 1 12 3 15 4 7 4 38 9 76 14 18 3 36 7 41 10
5 3 22 0 37 -8 14 -8 24 -10 21 -5 -4 6 -2 10 4 10 5 0 12 -4 16 -10 3 -5 13
-6 22 -3 10 4 14 2 9 -5 -3 -6 -2 -13 4 -17 5 -3 10 2 10 12 1 17 1 17 14 0
11 -14 15 -15 19 -5 4 10 6 10 6 1 1 -7 12 -13 26 -13 14 0 25 -6 25 -12 0 -8
3 -9 8 -3 10 14 32 17 32 4 0 -8 4 -8 13 0 10 8 17 7 26 -2 9 -9 14 -9 20 1 9
14 32 13 43 -3 5 -6 8 -5 8 3 0 6 4 12 10 12 5 0 7 -8 4 -17 -5 -15 -4 -16 5
-3 9 14 20 17 76 23 11 1 26 6 32 10 7 5 21 10 30 12 39 7 47 11 75 36 24 21
31 36 32 70 1 24 -2 53 -8 64 -16 32 -20 78 -5 69 9 -5 9 -3 3 7 -5 8 -9 38
-10 68 -1 35 1 49 7 40 7 -11 9 -11 9 4 0 9 -5 17 -10 17 -6 0 -9 20 -8 45 2
31 7 44 15 41 7 -3 15 -1 18 5 4 5 3 9 -2 8 -4 -1 -14 -1 -22 0 -11 1 -11 4 0
18 10 11 10 14 2 9 -8 -4 -13 -1 -13 9 0 10 5 13 13 9 7 -5 6 0 -3 11 -14 17
-13 18 2 12 10 -3 20 -2 23 4 4 5 3 9 -2 8 -4 -1 -14 -1 -22 0 -11 1 -11 4 0
18 10 11 10 14 2 9 -16 -9 -17 21 -3 58 6 18 6 26 -1 26 -6 0 -8 4 -4 10 10
17 -6 55 -32 74 -17 12 -42 18 -77 18 -85 0 -210 -14 -223 -24 -9 -7 -20 -4
-38 10 -15 12 -32 19 -38 17 -7 -3 -30 -7 -52 -9 -22 -3 -42 -5 -45 -6 -24 -5
-415 1 -417 7 -3 9 -157 7 -179 -1 -7 -3 -16 -1 -20 5 -4 7 -10 6 -19 -1 -16
-13 -72 -10 -67 4 2 5 -3 13 -12 18 -9 5 -13 15 -10 21 4 7 4 9 -1 5 -9 -8
-35 15 -35 32 0 6 -4 8 -10 5 -5 -3 -10 -1 -10 5 0 18 -53 59 -85 65 -33 7
-195 12 -200 7z m56 -371 c11 -2 17 -51 7 -51 -5 0 -6 -5 -3 -11 11 -16 11
-78 1 -72 -5 3 -4 -2 1 -12 5 -9 8 -28 5 -41 -6 -30 -34 -31 -62 -2 -22 24
-27 58 -7 58 8 0 7 4 -3 10 -13 9 -13 10 0 10 13 0 13 1 0 10 -13 9 -13 10 0
10 9 0 11 3 5 8 -6 4 -11 25 -11 48 0 40 1 41 31 39 16 -2 33 -3 36 -4z m1156
-138 c-11 -10 -26 8 -20 23 5 15 7 14 15 -1 6 -9 7 -19 5 -22z m-467 2 c0 0
-13 -13 -29 -28 -27 -25 -30 -25 -26 -7 6 31 14 39 35 37 11 -1 20 -1 20 -2z
m468 -56 l3 -39 -45 0 c-36 0 -46 4 -51 20 -9 27 1 39 28 34 12 -2 16 -2 10 2
-9 4 -10 11 -3 25 9 15 15 17 33 8 18 -8 24 -20 25 -50z m-98 -27 c0 -4 -11
-8 -26 -8 -23 -2 -24 -1 -7 11 17 13 33 11 33 -3z"/>
<path d="M525 2193 c-3 -9 0 -21 6 -27 9 -8 10 -8 5 2 -11 18 3 35 18 23 9 -8
13 -7 13 2 0 19 -34 18 -42 0z"/>
<path d="M521 2054 c0 -11 3 -14 6 -6 3 7 2 16 -1 19 -3 4 -6 -2 -5 -13z"/>
<path d="M1690 2061 c0 -10 19 -25 25 -20 1 2 -3 10 -11 17 -8 7 -14 8 -14 3z"/>
<path d="M1650 2023 c0 -6 8 -17 18 -24 16 -13 16 -13 2 6 -8 11 -16 22 -17
24 -2 2 -3 0 -3 -6z"/>
<path d="M3095 2565 c-55 -12 -118 -30 -139 -39 -22 -9 -41 -15 -43 -12 -2 2
-29 -2 -61 -8 -55 -11 -101 -12 -187 -3 -44 4 -70 -6 -97 -37 -23 -26 -22
-142 0 -151 9 -3 12 -13 9 -25 -3 -11 -1 -18 4 -15 11 7 40 -50 31 -60 -4 -5
-2 -5 4 -2 6 4 30 -14 52 -38 29 -31 49 -45 67 -45 17 0 24 -4 19 -12 -5 -7
-3 -8 7 -2 25 15 67 13 74 -4 3 -8 0 -19 -7 -24 -7 -4 -8 -8 -3 -8 6 0 11 -9
11 -20 0 -11 -4 -20 -9 -20 -4 0 -7 -53 -6 -117 1 -65 0 -122 -1 -128 -1 -5
-1 -12 0 -15 1 -3 4 -25 6 -50 7 -70 7 -70 12 -66 3 4 28 -14 58 -42 8 -8 14
-9 14 -3 0 6 5 11 11 11 5 0 7 -6 3 -12 -6 -10 -4 -10 7 0 19 17 29 15 22 -5
-5 -15 -3 -15 11 2 12 14 19 16 22 8 3 -7 10 -13 15 -13 6 0 8 4 5 9 -9 13 35
21 56 10 10 -6 15 -15 12 -21 -4 -7 -3 -8 5 -4 6 4 9 11 6 16 -3 5 5 16 17 24
25 18 42 21 33 6 -10 -17 4 -11 24 9 13 13 27 18 43 14 13 -3 20 -3 16 1 -9
11 42 66 61 67 12 0 11 3 -4 9 l-20 9 20 1 c11 1 14 4 8 7 -7 2 -13 20 -13 39
0 19 -4 34 -9 34 -14 0 -21 54 -8 62 8 5 4 8 -8 8 -17 0 -17 2 -5 10 13 9 13
10 0 10 -13 0 -13 1 0 10 8 5 10 10 5 10 -6 0 -11 12 -13 28 l-1 27 14 -25 c8
-14 14 -21 15 -17 0 5 -6 18 -12 30 -14 24 -19 128 -6 121 5 -3 5 -10 2 -16
-4 -7 -2 -8 4 -4 13 8 5 36 -11 36 -6 0 -8 2 -5 5 3 3 17 1 32 -5 34 -12 76
-22 99 -21 9 0 15 -4 13 -8 -3 -4 1 -29 9 -55 8 -27 12 -53 8 -59 -3 -6 -1 -7
5 -3 7 4 13 2 13 -3 1 -6 2 -14 3 -18 1 -5 6 -23 10 -42 13 -53 67 -151 104
-188 29 -30 32 -36 20 -51 -12 -15 -11 -16 4 -4 20 16 38 8 39 -16 0 -11 2
-12 6 -4 7 18 23 4 17 -16 -4 -11 -3 -13 3 -5 7 11 70 9 82 -3 2 -2 19 3 37
11 37 15 36 15 62 15 12 0 14 2 4 8 -9 6 -5 12 14 21 26 11 26 11 13 -6 -12
-16 -12 -17 2 -6 9 7 19 9 24 5 4 -4 2 4 -5 16 -11 22 -10 23 12 17 21 -7 22
-7 8 10 -8 11 -10 16 -3 12 7 -5 16 5 24 28 12 32 21 40 42 36 5 -1 6 3 2 9
-3 6 -12 7 -18 3 -7 -4 -5 1 3 11 8 10 15 24 16 31 1 7 9 28 17 46 23 53 30
73 28 82 -1 5 9 6 21 2 20 -5 21 -5 5 5 -12 8 -15 15 -9 23 6 7 9 23 8 37 -1
14 2 33 6 43 5 9 5 17 0 17 -5 0 -9 33 -8 74 0 61 2 71 13 58 10 -15 11 -14 6
6 -3 12 -13 22 -22 23 -9 0 -11 3 -4 5 9 4 8 14 -2 38 -8 19 -12 36 -10 40 3
3 2 4 -1 2 -3 -3 -18 6 -32 19 -14 13 -30 21 -36 18 -17 -11 -56 -9 -56 2 0 6
-3 7 -8 0 -4 -5 -27 -10 -52 -10 -48 1 -79 -10 -95 -32 -9 -12 -15 -11 -34 6
-23 20 -39 23 -143 24 -20 1 -35 5 -32 9 12 19 14 58 3 58 -8 0 -7 6 2 17 12
14 12 16 0 8 -11 -6 -13 -4 -8 9 4 9 3 15 -2 12 -12 -7 -53 39 -44 49 5 4 3 6
-3 2 -5 -3 -48 3 -95 13 -125 28 -145 28 -254 5z m-5 -919 c0 -3 -4 -8 -10
-11 -5 -3 -10 -1 -10 4 0 6 5 11 10 11 6 0 10 -2 10 -4z"/>
<path d="M2115 2300 c-3 -5 -1 -10 4 -10 6 0 11 5 11 10 0 6 -2 10 -4 10 -3 0
-8 -4 -11 -10z"/>
<path d="M2100 2260 c0 -5 5 -10 10 -10 6 0 10 5 10 10 0 6 -4 10 -10 10 -5 0
-10 -4 -10 -10z"/>
<path d="M4016 2178 c3 -5 10 -6 15 -3 13 9 11 12 -6 12 -8 0 -12 -4 -9 -9z"/>
<path d="M4011 2134 c0 -11 3 -14 6 -6 3 7 2 16 -1 19 -3 4 -6 -2 -5 -13z"/>
<path d="M2107 2087 c-3 -8 1 -14 8 -14 7 0 11 6 8 14 -3 7 -6 13 -8 13 -2 0
-5 -6 -8 -13z"/>
<path d="M3246 2063 c-4 -9 -2 -21 4 -27 8 -8 9 -6 4 8 -5 13 -4 17 4 12 8 -5
10 -2 6 8 -8 20 -10 20 -18 -1z"/>
<path d="M3985 1960 c-3 -6 1 -7 9 -4 18 7 21 14 7 14 -6 0 -13 -4 -16 -10z"/>
<path d="M2109 1943 c-13 -16 -12 -17 4 -4 9 7 17 15 17 17 0 8 -8 3 -21 -13z"/>
<path d="M3988 1923 c6 -2 9 -10 6 -15 -4 -7 -2 -8 5 -4 13 9 5 26 -12 25 -9
0 -8 -2 1 -6z"/>
<path d="M3954 1842 c3 -5 0 -13 -6 -15 -9 -4 -10 -6 -1 -6 17 -1 25 16 12 25
-7 4 -9 3 -5 -4z"/>
<path d="M2120 1786 c0 -2 7 -7 16 -10 8 -3 12 -2 9 4 -6 10 -25 14 -25 6z"/>
<path d="M3903 1758 c-9 -16 -16 -54 -7 -46 3 3 7 14 8 23 1 9 9 21 17 26 9 5
10 9 2 9 -6 0 -15 -6 -20 -12z"/>
<path d="M3252 1718 c-15 -15 -15 -28 -1 -28 5 0 7 5 3 12 -5 7 -2 9 9 5 11
-4 14 -2 10 9 -6 17 -6 17 -21 2z"/>
<path d="M2074 1666 c1 -8 5 -18 8 -22 4 -3 5 1 4 10 -1 8 -5 18 -8 22 -4 3
-5 -1 -4 -10z"/>
<path d="M1491 1654 c0 -11 3 -14 6 -6 3 7 2 16 -1 19 -3 4 -6 -2 -5 -13z"/>
<path d="M3174 1659 c-3 -6 -3 -13 0 -16 3 -4 6 -1 6 5 0 6 7 9 15 6 8 -4 15
-4 15 -1 0 11 -30 16 -36 6z"/>
<path d="M1420 1645 c-7 -9 -8 -15 -2 -15 5 0 12 7 16 15 3 8 4 15 2 15 -2 0
-9 -7 -16 -15z"/>
<path d="M750 1640 c0 -5 5 -10 10 -10 6 0 10 5 10 10 0 6 -4 10 -10 10 -5 0
-10 -4 -10 -10z"/>
<path d="M1126 1637 c3 -10 9 -15 12 -12 3 3 0 11 -7 18 -10 9 -11 8 -5 -6z"/>
<path d="M1374 1639 c-3 -6 -1 -16 5 -22 9 -9 10 -7 5 7 -6 15 -4 17 6 11 9
-5 11 -4 6 3 -9 15 -13 15 -22 1z"/>
<path d="M2028 1643 c7 -3 16 -2 19 1 4 3 -2 6 -13 5 -11 0 -14 -3 -6 -6z"/>
<path d="M3755 1640 c-3 -5 -1 -10 4 -10 6 0 11 5 11 10 0 6 -2 10 -4 10 -3 0
-8 -4 -11 -10z"/>
<path d="M3786 1641 c-3 -4 6 -7 19 -7 14 0 22 2 19 5 -8 8 -34 10 -38 2z"/>
<path d="M725 1631 c-6 -11 13 -26 22 -17 4 3 1 6 -6 6 -7 0 -9 5 -6 10 3 6 4
10 1 10 -3 0 -7 -4 -11 -9z"/>
<path d="M1335 1630 c-4 -6 -10 -8 -15 -5 -5 3 -11 2 -14 -3 -2 -4 6 -8 18 -8
12 0 23 6 23 13 0 16 -4 16 -12 3z"/>
<path d="M3650 1636 c0 -2 7 -9 15 -16 9 -7 15 -8 15 -2 0 5 -7 12 -15 16 -8
3 -15 4 -15 2z"/>
<path d="M330 1619 c0 -5 5 -7 10 -4 6 3 10 8 10 11 0 2 -4 4 -10 4 -5 0 -10
-5 -10 -11z"/>
<path d="M396 1622 c-3 -5 1 -9 9 -9 8 0 12 4 9 9 -3 4 -7 8 -9 8 -2 0 -6 -4
-9 -8z"/>
<path d="M475 1620 c-3 -6 1 -7 9 -4 18 7 21 14 7 14 -6 0 -13 -4 -16 -10z"/>
<path d="M3716 1622 c-3 -5 1 -9 9 -9 8 0 15 4 15 9 0 4 -4 8 -9 8 -6 0 -12
-4 -15 -8z"/>
<path d="M1890 1611 c0 -6 4 -13 10 -16 6 -3 7 1 4 9 -7 18 -14 21 -14 7z"/>
<path d="M1815 1600 c3 -5 8 -10 11 -10 2 0 4 5 4 10 0 6 -5 10 -11 10 -5 0
-7 -4 -4 -10z"/>
</g>
</svg>
