<?xml version="1.0" standalone="no"?>
<!DOCTYPE svg PUBLIC "-//W3C//DTD SVG 20010904//EN"
 "http://www.w3.org/TR/2001/REC-SVG-20010904/DTD/svg10.dtd">
<svg version="1.0" xmlns="http://www.w3.org/2000/svg"
 width="253.000000pt" height="253.000000pt" viewBox="0 0 253.000000 253.000000"
 preserveAspectRatio="xMidYMid meet">
<metadata>
Created by potrace 1.14, written by Peter Selinger 2001-2017
</metadata>
<g transform="translate(0.000000,253.000000) scale(0.100000,-0.100000)"
fill="#000000" stroke="none">
<path d="M0 1270 l0 -400 820 0 820 0 0 40 0 40 -790 0 -790 0 0 310 0 310
695 0 695 0 0 -43 0 -44 40 0 40 0 0 94 0 93 -765 0 -765 0 0 -400z"/>
<path d="M1702 1620 l1 -50 66 0 c36 -1 209 -1 384 -1 l317 -1 0 -319 0 -319
-285 0 -285 0 0 45 0 45 -40 0 -40 0 0 -75 0 -75 355 0 355 0 0 400 0 400
-414 0 -415 0 1 -50z"/>
<path d="M181 1451 c-13 -8 -19 -56 -8 -67 3 -3 27 -6 54 -7 l48 -2 3 -150 c1
-82 6 -153 11 -158 5 -5 18 -6 30 -2 20 6 21 13 21 161 l0 156 28 -2 c80 -6
99 8 81 58 -8 21 -13 22 -131 22 -68 0 -129 -4 -137 -9z"/>
<path d="M962 1451 c-11 -6 -14 -49 -13 -191 0 -190 5 -215 39 -194 14 9 17
30 20 128 l3 117 44 -61 c53 -72 64 -70 120 13 l35 52 0 -122 c0 -115 1 -122
21 -128 12 -4 25 -3 31 3 15 15 11 374 -5 384 -20 13 -29 5 -90 -76 l-59 -77
-40 58 c-45 64 -78 103 -87 103 -3 0 -12 -4 -19 -9z"/>
<path d="M1473 1452 c-16 -10 -133 -323 -133 -356 0 -54 51 -44 70 14 l13 40
64 0 64 0 19 -45 c11 -25 25 -45 33 -45 17 0 37 20 37 38 0 18 -119 334 -132
349 -12 15 -18 16 -35 5z m33 -177 c19 -45 19 -45 -16 -45 -16 0 -30 3 -30 7
0 10 24 73 28 73 1 0 10 -16 18 -35z"/>
<path d="M1723 1449 c-16 -16 -17 -56 -1 -65 7 -4 47 -8 90 -7 43 0 78 -2 78
-4 0 -3 -41 -62 -91 -130 -68 -95 -89 -132 -87 -152 l3 -26 140 0 140 0 0 35
0 35 -88 5 -88 5 91 124 c75 102 90 130 88 155 l-3 31 -130 3 c-94 2 -133 0
-142 -9z"/>
<path d="M2103 1453 c-10 -3 -13 -50 -13 -186 0 -100 4 -188 8 -195 6 -9 36
-12 112 -10 102 3 104 4 110 28 11 41 -5 50 -91 50 l-79 0 0 40 0 39 72 3 c68
3 73 5 78 28 11 40 -6 50 -81 50 l-69 0 0 39 0 40 53 -1 c108 -1 114 0 119 26
10 49 -5 56 -110 55 -53 0 -103 -3 -109 -6z"/>
<path d="M529 1443 c0 -5 -2 -15 -4 -24 -4 -23 130 -342 149 -354 24 -15 37 5
110 178 72 169 78 202 36 202 -23 0 -30 -13 -79 -127 l-55 -128 -55 130 c-48
111 -59 130 -78 130 -13 0 -23 -3 -24 -7z"/>
</g>
</svg>
